<?xml version="1.0" encoding="UTF-8" standalone="no"?>
<!-- Created with Inkscape (http://www.inkscape.org/) -->

<svg
   xmlns:dc="http://purl.org/dc/elements/1.1/"
   xmlns:cc="http://creativecommons.org/ns#"
   xmlns:rdf="http://www.w3.org/1999/02/22-rdf-syntax-ns#"
   xmlns:svg="http://www.w3.org/2000/svg"
   xmlns="http://www.w3.org/2000/svg"
   xmlns:sodipodi="http://sodipodi.sourceforge.net/DTD/sodipodi-0.dtd"
   xmlns:inkscape="http://www.inkscape.org/namespaces/inkscape"
   width="57.497688mm"
   height="24.653652mm"
   viewBox="0 0 203.73197 87.35546"
   id="svg4190"
   version="1.1"
   inkscape:version="0.91 r13725"
   sodipodi:docname="Tel_Aviv_university_logo.svg">
  <defs
     id="defs4192">
    <clipPath
       clipPathUnits="userSpaceOnUse"
       id="clipPath3387">
      <path
         d="m 0,0 623.622,0 0,765.354 L 0,765.354 0,0 Z"
         id="path3389"
         inkscape:connector-curvature="0" />
    </clipPath>
    <clipPath
       clipPathUnits="userSpaceOnUse"
       id="clipPath3435">
      <path
         d="m 0,0 623.622,0 0,765.354 L 0,765.354 0,0 Z"
         id="path3437"
         inkscape:connector-curvature="0" />
    </clipPath>
    <clipPath
       clipPathUnits="userSpaceOnUse"
       id="clipPath3453">
      <path
         d="m 0,0 623.622,0 0,765.354 L 0,765.354 0,0 Z"
         id="path3455"
         inkscape:connector-curvature="0" />
    </clipPath>
    <clipPath
       clipPathUnits="userSpaceOnUse"
       id="clipPath3475">
      <path
         d="m 0,0 623.622,0 0,765.354 L 0,765.354 0,0 Z"
         id="path3477"
         inkscape:connector-curvature="0" />
    </clipPath>
    <clipPath
       clipPathUnits="userSpaceOnUse"
       id="clipPath3491">
      <path
         d="m 0,0 623.622,0 0,765.354 L 0,765.354 0,0 Z"
         id="path3493"
         inkscape:connector-curvature="0" />
    </clipPath>
  </defs>
  <sodipodi:namedview
     id="base"
     pagecolor="#ffffff"
     bordercolor="#666666"
     borderopacity="1.0"
     inkscape:pageopacity="0.0"
     inkscape:pageshadow="2"
     inkscape:zoom="4"
     inkscape:cx="83.885109"
     inkscape:cy="34.218946"
     inkscape:document-units="px"
     inkscape:current-layer="layer1"
     showgrid="false"
     fit-margin-top="0"
     fit-margin-left="0"
     fit-margin-right="0"
     fit-margin-bottom="0"
     inkscape:window-width="1858"
     inkscape:window-height="1053"
     inkscape:window-x="-8"
     inkscape:window-y="-8"
     inkscape:window-maximized="1" />
  <metadata
     id="metadata4195">
    <rdf:RDF>
      <cc:Work
         rdf:about="">
        <dc:format>image/svg+xml</dc:format>
        <dc:type
           rdf:resource="http://purl.org/dc/dcmitype/StillImage" />
        <dc:title />
      </cc:Work>
    </rdf:RDF>
  </metadata>
  <g
     inkscape:label="Calque 1"
     inkscape:groupmode="layer"
     id="layer1"
     transform="translate(-273.13402,-488.68448)">
    <g
       id="g4059"
       transform="matrix(1.7413805,0,0,-1.7413805,-557.09655,638.66905)">
      <g
         id="g3383">
        <g
           clip-path="url(#clipPath3387)"
           id="g3385">
          <g
             transform="translate(589.4198,66.2591)"
             id="g3391">
            <path
               inkscape:connector-curvature="0"
               id="path3393"
               style="fill:#000000;fill-opacity:1;fill-rule:nonzero;stroke:none"
               d="m 0,0 c -2.765,-6.337 -10.378,-9.346 -17.005,-6.723 -6.627,2.624 -9.758,9.887 -6.994,16.224 2.765,6.337 10.378,9.347 17.006,6.723 C -0.367,13.6 2.765,6.337 0,0 m 2.154,-0.853 c 3.255,7.463 -0.445,16.047 -8.249,19.137 -7.805,3.09 -16.803,-0.468 -20.058,-7.93 -3.256,-7.462 0.445,-16.047 8.25,-19.137 7.804,-3.09 16.801,0.468 20.057,7.93" />
          </g>
          <g
             transform="translate(566.9156,56.8448)"
             id="g3395">
            <path
               inkscape:connector-curvature="0"
               id="path3397"
               style="fill:#000000;fill-opacity:1;fill-rule:nonzero;stroke:none"
               d="m 0,0 c -4.358,5.441 -3.262,13.236 2.445,17.412 5.709,4.176 13.867,3.151 18.224,-2.29 C 25.026,9.682 23.931,1.886 18.224,-2.29 12.516,-6.466 4.357,-5.44 0,0 M -1.855,-1.357 C 3.276,-7.764 12.918,-8.976 19.64,-4.058 26.362,0.859 27.655,10.073 22.524,16.479 17.394,22.886 7.751,24.098 1.029,19.18 -5.692,14.263 -6.986,5.05 -1.855,-1.357" />
          </g>
          <g
             transform="translate(569.6835,80.1447)"
             id="g3399">
            <path
               inkscape:connector-curvature="0"
               id="path3401"
               style="fill:#000000;fill-opacity:1;fill-rule:nonzero;stroke:none"
               d="m 0,0 c 7.122,0.896 13.639,-3.889 14.559,-10.689 0.919,-6.799 -4.108,-13.038 -11.23,-13.934 -7.121,-0.896 -13.639,3.89 -14.559,10.689 C -12.149,-7.134 -7.121,-0.896 0,0 m -0.299,2.21 c -8.386,-1.055 -14.329,-8.428 -13.246,-16.435 1.083,-8.008 8.787,-13.664 17.173,-12.608 8.386,1.055 14.328,8.428 13.246,16.436 C 15.791,-2.39 8.088,3.266 -0.299,2.21" />
          </g>
          <g
             transform="translate(553.7148,70.1595)"
             id="g3403">
            <path
               inkscape:connector-curvature="0"
               id="path3405"
               style="fill:#000000;fill-opacity:1;fill-rule:nonzero;stroke:none"
               d="m 0,0 c 0,8.568 -7.136,15.539 -15.908,15.539 -3.446,0 -6.705,-1.053 -9.459,-3.05 -6.724,-1.945 -11.378,-8.003 -11.378,-14.897 0,-6.894 4.655,-12.953 11.379,-14.898 2.753,-1.996 6.012,-3.048 9.458,-3.048 8.772,0 15.908,6.97 15.908,15.537 0,0.797 -0.065,1.605 -0.194,2.408 C -0.065,-1.605 0,-0.796 0,0 m -13.205,-11.258 c -0.836,-0.177 -1.69,-0.266 -2.548,-0.266 -5.617,0 -10.452,3.807 -11.668,9.115 1.216,5.31 6.051,9.117 11.668,9.117 0.858,0 1.712,-0.089 2.548,-0.266 2.648,-2.227 4.156,-5.424 4.156,-8.85 0,-3.426 -1.508,-6.623 -4.156,-8.85" />
          </g>
          <g
             transform="translate(501.1642,67.9686)"
             id="g3407">
            <path
               inkscape:connector-curvature="0"
               id="path3409"
               style="fill:#000000;fill-opacity:1;fill-rule:nonzero;stroke:none"
               d="m 0,0 -1.553,0 c -1.553,-3.53 -5.531,-3.53 -6.912,0 l -1.626,0 C -6.696,-4.252 -3.333,-4.252 0,0" />
          </g>
          <g
             transform="translate(496.1422,85.699)"
             id="g3411">
            <path
               inkscape:connector-curvature="0"
               id="path3413"
               style="fill:#000000;fill-opacity:1;fill-rule:nonzero;stroke:none"
               d="m 0,0 c -10.147,0 -18.372,-8.035 -18.372,-17.947 0,-9.911 8.225,-17.947 18.372,-17.947 10.147,0 18.373,8.036 18.373,17.947 C 18.373,-8.035 10.147,0 0,0 m 1.881,-22.738 0.861,-1.247 c 0,0 0.726,0.239 0.654,1.233 l 1.263,-0.143 -0.317,-1.446 -0.727,-0.639 0.945,-1.09 -1.163,-0.852 -2.144,2.921 -0.5,0 0,-2.637 -1.48,0 0,2.633 -1.189,0 c 0,0 0,-1.852 -0.436,-2.207 -0.437,-0.355 -2.135,-0.569 -2.135,-0.569 l 0,1.318 1.044,0 0,1.458 -0.535,0 0,1.252 3.251,0 0,0.853 -3.76,0 -2.862,6.113 5.36,-0.994 c 0,0 0.219,-2.04 1.553,-2.253 l 0.073,0.735 c 0,0 -1.481,1.943 -1.481,3.957 0,1.681 1.402,4.61 1.844,5.449 0.443,-0.839 1.844,-3.768 1.844,-5.449 0,-2.014 -1.48,-3.957 -1.48,-3.957 l 0.073,-0.735 c 1.334,0.213 1.552,2.253 1.552,2.253 l 5.36,0.994 -2.861,-6.113 -3.735,0 0,-0.838 1.128,0 z" />
          </g>
          <g
             transform="translate(495.924,69.5565)"
             id="g3415">
            <path
               inkscape:connector-curvature="0"
               id="path3417"
               style="fill:#000000;fill-opacity:1;fill-rule:nonzero;stroke:none"
               d="M 0,0 0.218,1.517 0.437,0 C 1.263,0.497 0.218,3.221 0.218,3.221 0.218,3.221 -0.825,0.497 0,0" />
          </g>
        </g>
      </g>
      <g
         transform="translate(484.5871,43.606)"
         id="g3419">
        <path
           inkscape:connector-curvature="0"
           id="path3421"
           style="fill:#000000;fill-opacity:1;fill-rule:nonzero;stroke:none"
           d="m 0,0 -2.048,0 0,1.628 5.956,0 0,-1.628 -2.074,0 0,-7.081 L 0,-7.081 0,0 Z" />
      </g>
      <g
         transform="translate(493.8358,40.2593)"
         id="g3423">
        <path
           inkscape:connector-curvature="0"
           id="path3425"
           style="fill:#000000;fill-opacity:1;fill-rule:nonzero;stroke:none"
           d="m 0,0 -2.764,0 0,-2.171 3.091,0 0,-1.563 -4.926,0 0,8.709 4.75,0 0,-1.564 -2.915,0 0,-1.873 L 0,1.538 0,0 Z" />
      </g>
      <g
         transform="translate(495.1934,45.2339)"
         id="g3427">
        <path
           inkscape:connector-curvature="0"
           id="path3429"
           style="fill:#000000;fill-opacity:1;fill-rule:nonzero;stroke:none"
           d="m 0,0 1.834,0 0,-7.119 3.003,0 0,-1.59 L 0,-8.709 0,0 Z" />
      </g>
      <g
         id="g3431">
        <g
           clip-path="url(#clipPath3435)"
           id="g3433">
          <g
             transform="translate(504.8065,38.683)"
             id="g3439">
            <path
               inkscape:connector-curvature="0"
               id="path3441"
               style="fill:#000000;fill-opacity:1;fill-rule:nonzero;stroke:none"
               d="m 0,0 -0.528,-2.158 -1.872,0 2.362,8.709 2.35,0 2.337,-8.709 -1.922,0 L 2.161,0 0,0 Z M 1.91,1.421 1.457,3.269 C 1.332,3.786 1.194,4.509 1.081,5.039 l -0.026,0 C 0.942,4.509 0.817,3.773 0.691,3.256 l -0.452,-1.835 1.671,0 z" />
          </g>
          <g
             transform="translate(511.0117,36.5252)"
             id="g3443">
            <path
               inkscape:connector-curvature="0"
               id="path3445"
               style="fill:#000000;fill-opacity:1;fill-rule:nonzero;stroke:none"
               d="m 0,0 -2.475,8.709 2.01,0 L 0.44,5 C 0.691,3.993 0.917,2.985 1.106,1.912 l 0.025,0 c 0.176,1.047 0.415,2.081 0.666,3.076 l 0.917,3.721 1.973,0 L 2.111,0 0,0 Z" />
          </g>
        </g>
      </g>
      <path
         inkscape:connector-curvature="0"
         id="path3447"
         style="fill:#000000;fill-opacity:1;fill-rule:nonzero;stroke:none"
         d="m 518.162,36.525 -1.834,0 0,8.709 1.834,0 0,-8.709 z" />
      <g
         id="g3449">
        <g
           clip-path="url(#clipPath3453)"
           id="g3451">
          <g
             transform="translate(521.3036,36.5252)"
             id="g3457">
            <path
               inkscape:connector-curvature="0"
               id="path3459"
               style="fill:#000000;fill-opacity:1;fill-rule:nonzero;stroke:none"
               d="m 0,0 -2.475,8.709 2.01,0 L 0.44,5 C 0.691,3.993 0.917,2.985 1.106,1.912 l 0.025,0 c 0.176,1.047 0.415,2.081 0.666,3.076 l 0.917,3.721 1.973,0 L 2.111,0 0,0 Z" />
          </g>
          <g
             transform="translate(530.8422,45.2339)"
             id="g3461">
            <path
               inkscape:connector-curvature="0"
               id="path3463"
               style="fill:#000000;fill-opacity:1;fill-rule:nonzero;stroke:none"
               d="M 0,0 0,-5.207 C 0,-6.642 0.503,-7.3 1.319,-7.3 c 0.842,0 1.332,0.62 1.332,2.093 l 0,5.207 1.835,0 0,-5.039 c 0,-2.546 -1.169,-3.799 -3.217,-3.799 -2.023,0 -3.103,1.228 -3.103,3.812 L -1.834,0 0,0 Z" />
          </g>
          <g
             transform="translate(536.1572,36.5252)"
             id="g3465">
            <path
               inkscape:connector-curvature="0"
               id="path3467"
               style="fill:#000000;fill-opacity:1;fill-rule:nonzero;stroke:none"
               d="m 0,0 0,8.709 2.01,0 1.621,-3.256 C 4.071,4.613 4.536,3.515 4.875,2.597 l 0.038,0 C 4.812,3.682 4.75,4.949 4.75,6.357 l 0,2.352 1.658,0 L 6.408,0 4.561,0 2.902,3.346 C 2.45,4.225 1.948,5.336 1.608,6.28 l -0.038,0 C 1.621,5.207 1.658,3.941 1.658,2.416 L 1.658,0 0,0 Z" />
          </g>
        </g>
      </g>
      <path
         inkscape:connector-curvature="0"
         id="path3469"
         style="fill:#000000;fill-opacity:1;fill-rule:nonzero;stroke:none"
         d="m 545.518,36.525 -1.835,0 0,8.709 1.835,0 0,-8.709 z" />
      <g
         id="g3471">
        <g
           clip-path="url(#clipPath3475)"
           id="g3473">
          <g
             transform="translate(548.6592,36.5252)"
             id="g3479">
            <path
               inkscape:connector-curvature="0"
               id="path3481"
               style="fill:#000000;fill-opacity:1;fill-rule:nonzero;stroke:none"
               d="m 0,0 -2.475,8.709 2.01,0 L 0.44,5 C 0.691,3.993 0.918,2.985 1.106,1.912 l 0.025,0 c 0.176,1.047 0.415,2.081 0.666,3.076 l 0.917,3.721 1.973,0 L 2.112,0 0,0 Z" />
          </g>
        </g>
      </g>
      <g
         transform="translate(558.8389,40.2593)"
         id="g3483">
        <path
           inkscape:connector-curvature="0"
           id="path3485"
           style="fill:#000000;fill-opacity:1;fill-rule:nonzero;stroke:none"
           d="m 0,0 -2.764,0 0,-2.171 3.091,0 0,-1.563 -4.926,0 0,8.709 4.75,0 0,-1.564 -2.915,0 0,-1.873 L 0,1.538 0,0 Z" />
      </g>
      <g
         id="g3487">
        <g
           clip-path="url(#clipPath3491)"
           id="g3489">
          <g
             transform="translate(560.1965,45.1177)"
             id="g3495">
            <path
               inkscape:connector-curvature="0"
               id="path3497"
               style="fill:#000000;fill-opacity:1;fill-rule:nonzero;stroke:none"
               d="m 0,0 c 0.591,0.103 1.42,0.181 2.325,0.181 1.143,0 2.01,-0.181 2.588,-0.672 0.515,-0.439 0.754,-1.047 0.754,-1.835 0,-1.059 -0.666,-1.847 -1.445,-2.158 l 0,-0.038 c 0.59,-0.246 0.905,-0.814 1.106,-1.654 0.238,-0.969 0.477,-2.08 0.641,-2.417 l -1.885,0 c -0.126,0.246 -0.327,0.995 -0.541,2.042 -0.2,1.085 -0.54,1.382 -1.244,1.382 l -0.477,0 0,-3.424 L 0,-8.593 0,0 Z m 1.822,-3.786 0.616,0 c 0.879,0 1.395,0.53 1.395,1.292 0,0.801 -0.453,1.241 -1.295,1.253 -0.364,0 -0.59,-0.025 -0.716,-0.064 l 0,-2.481 z" />
          </g>
          <g
             transform="translate(566.945,38.4635)"
             id="g3499">
            <path
               inkscape:connector-curvature="0"
               id="path3501"
               style="fill:#000000;fill-opacity:1;fill-rule:nonzero;stroke:none"
               d="m 0,0 c 0.465,-0.258 1.194,-0.491 1.91,-0.491 0.841,0 1.281,0.387 1.281,0.956 0,0.568 -0.402,0.879 -1.319,1.279 -1.331,0.582 -2.111,1.422 -2.111,2.546 0,1.46 1.119,2.597 3.041,2.597 0.842,0 1.482,-0.181 1.91,-0.401 L 4.335,4.949 C 4.033,5.104 3.493,5.323 2.777,5.323 1.985,5.323 1.608,4.91 1.608,4.457 1.608,3.915 2.01,3.669 3.053,3.191 4.436,2.584 5.038,1.757 5.038,0.62 c 0,-1.499 -1.093,-2.675 -3.216,-2.675 -0.879,0 -1.747,0.246 -2.161,0.478 L 0,0 Z" />
          </g>
        </g>
      </g>
      <path
         inkscape:connector-curvature="0"
         id="path3503"
         style="fill:#000000;fill-opacity:1;fill-rule:nonzero;stroke:none"
         d="m 574.534,36.525 -1.834,0 0,8.709 1.834,0 0,-8.709 z" />
      <g
         transform="translate(577.3362,43.606)"
         id="g3505">
        <path
           inkscape:connector-curvature="0"
           id="path3507"
           style="fill:#000000;fill-opacity:1;fill-rule:nonzero;stroke:none"
           d="m 0,0 -2.048,0 0,1.628 5.956,0 0,-1.628 -2.073,0 0,-7.081 L 0,-7.081 0,0 Z" />
      </g>
      <g
         transform="translate(584.1612,36.5252)"
         id="g3517">
        <path
           inkscape:connector-curvature="0"
           id="path3519"
           style="fill:#000000;fill-opacity:1;fill-rule:nonzero;stroke:none"
           d="m 0,0 0,3.502 -2.425,5.207 2.061,0 0.767,-2.093 C 0.641,6.008 0.817,5.492 0.993,4.897 l 0.025,0 C 1.181,5.466 1.37,6.008 1.584,6.629 l 0.754,2.08 2.022,0 L 1.835,3.566 1.835,0 0,0 Z" />
      </g>
    </g>
  </g>
</svg>
